# xmcd CD database file
#
# Track frame offsets:
#	150
#	23545
#	46125
#	68782
#	88693
#	103167
#	126039
#	155398
#
# Disc length: 3286 seconds
#
# Revision: 0
# Processed by: cddbd v1.5.2PL0 Copyright (c) Steve Scherf et al.
# Submitted via: CDex 1.51
#
DISCID=5b0cd408
DTITLE=black rebel motorcycle club - american x - baby 81 sessions - ep
DYEAR=2007
DGENRE=Alternative Rock
TTITLE0=the likes of you
TTITLE1=vision
TTITLE2=the show's about to begin
TTITLE3=mk ultra
TTITLE4=whenever you're ready
TTITLE5=20 huours
TTITLE6=last chance for love
TTITLE7=american x ( short film ) 
EXTD=YEAR: 2007
EXTT0=
EXTT1=
EXTT2=
EXTT3=
EXTT4=
EXTT5=
EXTT6=
EXTT7=
PLAYORDER=
